<?xml version="1.0" standalone="no"?><!DOCTYPE svg PUBLIC "-//W3C//DTD SVG 1.1//EN" "http://www.w3.org/Graphics/SVG/1.1/DTD/svg11.dtd"><svg t="1733723772411" class="icon" viewBox="0 0 1024 1024" version="1.1" xmlns="http://www.w3.org/2000/svg" p-id="2913" xmlns:xlink="http://www.w3.org/1999/xlink" width="200" height="200"><path d="M822.4 329.6c-6.4-6.4-12.8-12.8-22.4-12.8-9.6 0-19.2 3.2-22.4 12.8l-128 150.4-278.4-390.4c-6.4-6.4-16-12.8-25.6-12.8-9.6 0-19.2 6.4-25.6 12.8l-300.8 576c-6.4 9.6-6.4 22.4 0 28.8 6.4 9.6 16 16 25.6 16h3.2v3.2h937.6l-3.2-3.2c9.6-3.2 19.2-9.6 22.4-19.2 3.2-9.6 3.2-19.2-3.2-28.8l-179.2-332.8zM224 883.2c-16 0-28.8 12.8-28.8 32 0 16 12.8 32 28.8 32h569.6c9.6 0 16-3.2 22.4-9.6 6.4-6.4 9.6-12.8 9.6-22.4 0-16-12.8-32-28.8-32H224zM915.2 800c0-9.6-3.2-16-9.6-22.4-6.4-6.4-12.8-9.6-22.4-9.6H137.6c-12.8-3.2-22.4 3.2-32 12.8-6.4 9.6-6.4 22.4 0 35.2 6.4 9.6 19.2 16 32 12.8h748.8c12.8 0 28.8-12.8 28.8-28.8z" p-id="2914" fill="#69707A"></path></svg>